<svg version="1" xmlns="http://www.w3.org/2000/svg" width="933.333" height="933.333" viewBox="0 0 700.000000 700.000000"><path d="M98.5 10C53.8 19.5 19.1 54.3 10 99.1c-2 9.5-2 14.1-2 250.7 0 264.5-.4 246.8 6 265.6 11.1 32.8 38.7 60.3 71.5 71 17.9 5.9 3.4 5.6 264.5 5.6 262.8 0 246.8.4 265.4-5.9 17.2-5.9 31.8-15.3 45.2-29.3 12.3-12.8 20.1-25.5 25.6-41.8 6.1-18.2 5.8-2.7 5.8-265.5 0-262.4.3-246.2-5.7-264.3-9.6-29.1-31.9-53.8-60.7-67.3-4.8-2.2-13.1-5.2-18.4-6.7l-9.7-2.7-245-.2c-237.1-.2-245.3-.1-254 1.7zM87.3 58.6c3.3 6.5 13.1 18.8 19.9 24.9 7.3 6.6 18.6 13.3 39.8 23.7 10.1 4.9 20.9 10.7 24 12.8 8.3 5.7 16.4 14.8 18 20.4 2.6 9.4-.7 25.9-7.1 35.1l-2.1 3 .6-3.3c.3-1.7.2-3.2-.3-3.2s-1.1-3.3-1.3-7.3c-.2-5.1-1.1-8.6-2.8-12.1-3.6-7.1-12.8-15-23.5-20.1-4.9-2.3-15.2-7.2-22.8-10.9-21.6-10.3-31.6-17.9-40.2-30.5-7.4-10.9-10.5-22.4-9-33.8.6-4.4.9-5.3 1.6-3.8.6 1.6.8 1.3.9-1.5.2-3.2.2-3.3.9-1 .5 1.4 2 4.8 3.4 7.6zm-7.1 55.9c11.1 11.9 26 20.3 55.3 31 7.2 2.6 15.7 6.2 19 7.9 7.7 4 14.9 11.1 15.8 15.5.9 4.1.7 13.8-.2 17.1-.6 2.2-.9 1.9-3.4-3.3-4.4-9.4-10.5-13-36.7-21.8-28.7-9.6-35.7-13-46.7-22.4-7.5-6.4-13.3-21.8-13.2-35v-3l2 3.7c1 2.1 4.7 6.7 8.1 10.3zm164.8 17c4.7.9 11 1.5 14 1.4 8.8-.2 8.9-.1 1.8 3.5-19.7 9.9-31.4 22.9-41.3 45.8-9.2 21.1-20.2 32.9-36.7 39.4-8.8 3.4-14.8 4.3-40.3 5.9-24.7 1.5-29.2 2.4-52 10.1-12.8 4.3-23.6 5.2-29.1 2.2-5.3-2.9-11.2-9.6-12.8-14.6-2-6.4-2.9-12.7-2.1-15.2l.6-2 3 2c4.7 3.4 18.8 9.6 27.9 12.4 27.5 8.3 57.7 3.3 83.4-13.8 13.5-9 25-23.5 34.1-43.1 2.5-5.4 7-13.5 9.9-18 7.3-11.2 12.1-14.6 22.6-16.5 6.7-1.2 7.8-1.1 17 .5zm102 8.2c-6.6 20.6-27.3 36.7-54.5 42.5-7.8 1.6-11.6 1.8-28.5 1.2-19.4-.6-19.5-.6-27 2.1-4.1 1.5-8 3.1-8.6 3.6-.6.5-1.4.6-1.7.2-.9-.9 1.3-3.4 2.4-2.7.5.3.6-.1.3-.9-.7-1.9 12.7-14.4 19.3-17.9 8.4-4.6 15.1-5.8 32.9-5.8 18.6 0 27.2-1.7 38.2-7.5 7.4-3.9 25.2-16.8 26.6-19.3 1.5-2.7 1.9.3.6 4.5zM117.8 176c3.7 1.1 12.6 2.8 19.7 3.8 7.2 1.1 14.8 2.7 16.9 3.7 4.7 2.2 7.6 6.7 7.6 11.7v3.7l-3.7-2.1c-3-1.8-5.1-2.2-11.2-2.1-11 .2-21.9-2-30.7-6.2-5.8-2.8-9.5-5.6-16-12.1-4.6-4.6-8.4-8.8-8.4-9.3s4.3.8 9.6 3c5.2 2.1 12.5 4.8 16.2 5.9zm207.6 11.5c-.9 1.4-2 2.2-2.5 1.9-.5-.3-.8 0-.7.8.2.7-.3 1.2-1 1-.8-.1-1.1.2-.8.7 1.5 2.4-17.7 16-29.8 21-19 7.9-32.1 8.1-50.9.7-7.7-3.1-14-4.9-18.2-5.3-3.6-.3-6.5-1-6.5-1.5s3.5-2.6 7.8-4.5c6.7-3.2 8.9-3.7 16.9-4.1 6.7-.3 11.3.1 17 1.4 5.2 1.2 11.6 1.9 19.3 1.9 10.5 0 12.3-.3 21.3-3.4 5.4-1.9 14.2-5.6 19.5-8.2 5.3-2.6 9.8-4.8 10-4.8.1-.1-.5 1-1.4 2.4zM129 234.6c-1.9.8-3.8 2.2-4.3 3-.5.8-1.3 1.2-1.8.8-.5-.3-.8 0-.7.7.2.6-.3 1.4-1.1 1.7-.8.3-1.1 0-.7-.7 1.1-1.7 0-1.3-1.5.6-1 1.1-1 1.4-.1.9.6-.4 1.2-.3 1.2.2 0 1.7-22.5 22.8-26.2 24.5-7.8 3.7-17.4 1.1-25.7-6.9-5.7-5.6-6.2-7.2-1.7-5.4 4.5 1.7 14 1.2 20-1 2.9-1.1 9.1-4.4 13.7-7.2 4.6-2.7 9.8-5.9 11.5-7 4.8-2.8 13.5-5.7 17.4-5.7h3.5l-3.5 1.5zm18.5 2c-3 4.4-6.1 12.5-8.7 22.8-2.3 9.6-3.6 12.1-8 16.3-5.9 5.7-12.8 7.3-23.2 5.5-5.4-1-5.5-2.6-.1-4 6.8-1.8 11.4-7.2 18.5-21.4 7.8-15.7 12-20.3 20-21.9 1.9-.4 3.6-.7 3.7-.8.1 0-.9 1.5-2.2 3.5zm501.3 38.5c4.2 1.4 5.9 5.7 3.8 9.7-.8 1.6-2.6 3.2-3.8 3.6-3.8 1-177.4.7-180.1-.3-5.3-2-5.1-10.1.3-12.8 3.3-1.7 175-1.9 179.8-.2zm0 76c4.2 1.4 5.9 5.7 3.8 9.7-.8 1.6-2.6 3.2-3.8 3.6-4.4 1.1-82.5.7-85.2-.5-5.3-2.4-5-9.9.4-12.6 3.3-1.7 80.1-1.9 84.8-.2zm0 76c4.2 1.4 5.9 5.7 3.8 9.7-.8 1.6-2.6 3.2-3.8 3.6-3.8 1-177.4.7-180.1-.3-5.3-2-5.1-10.1.3-12.8 3.3-1.7 175-1.9 179.8-.2zm0 76c5.9 2 6.4 10.7.7 12.9-3.4 1.3-82.5 1.3-85.8.1-5.3-2-5.1-10.1.3-12.8 3.3-1.7 80.1-1.9 84.8-.2zm0 76c5.6 1.9 6.4 10.1 1.3 12.8-2.6 1.4-179.4 1.5-182.1.1-4.7-2.5-4.1-10.1 1-12.7 3.3-1.7 175-1.9 179.8-.2z"/><path d="M325.9 161.7c-1.3 1.6-1.2 1.7.4.4.9-.7 1.7-1.5 1.7-1.7 0-.8-.8-.3-2.1 1.3zM113.4 245.2l-1.9 2.3 2.3-1.9c2.1-1.8 2.7-2.6 1.9-2.6-.2 0-1.2 1-2.3 2.2zM105.9 251.7l-2.4 2.8 2.8-2.4c2.5-2.3 3.2-3.1 2.4-3.1-.2 0-1.4 1.2-2.8 2.7z"/></svg>