<svg version="1" xmlns="http://www.w3.org/2000/svg" width="346.667" height="346.667" viewBox="0 0 260.000000 260.000000"><path d="M101.4 62.4c-9.1 4.1-9.9 16.7-1.4 21.1 10.5 5.4 22.9-3.2 19.9-13.9-1.8-6.5-11.6-10.4-18.5-7.2zM138.9 75.2c-.2.7-.3 21.9-.1 47l.2 45.8h68.1l-.3-8.3-.3-8.2-23-.5-23-.5-.3-38.3L160 74h-10.4c-7.5 0-10.5.4-10.7 1.2zM96 133.9v38.8l-2.6 2.8c-2.6 2.9-2.6 2.8-12.8 1.3-1.6-.2-2.5 1.1-4.7 6.7-2.5 6.4-2.6 7.1-1.1 8.3 2.6 2 8.2 3.2 15.3 3.2 11.9 0 19.9-4.4 24.7-13.3l2.7-5.2.3-40.8.3-40.7H96v38.9zM120 185.5v2.5h89v-5h-89v2.5z"/></svg>